#Comment line ignore any data following # character 
#Hierarchical Translation and Rotation (.htr) file 
[Header]	
#Header keywords are followed by a single value 
FileType HTR		#Single word string
DataType HTRS		#Translation followed by rotation and scale data
FileVersion 1		#integer
NumSegments 64		#integer
NumFrames 3		#integer
DataFrameRate 30		#integer, data frame rate in this file
EulerRotationOrder ZYX
CalibrationUnits mm
RotationUnits Degrees
GlobalAxisofGravity Y
BoneLengthAxis Y
ScaleFactor 1.00
[SegmentNames&Hierarchy]
#CHILD	PARENT
Pinger_Root GLOBAL
Pelvis Pinger_Root
L_Hip Pelvis
R_Hip Pelvis
Rear_Leg01 Pelvis
Spine1 Pelvis
L_Leg01 L_Hip
L_Leg02 L_Leg01
L_Leg03 L_Leg02
L_Foot L_Leg03
L_Toe1_01 L_Foot
L_Toe2_01 L_Foot
L_Toe3_01 L_Foot
planeAlignerLeft L_Foot
L_Toe1_02 L_Toe1_01
L_Toe1_03 L_Toe1_02
L_Toe2_02 L_Toe2_01
L_Toe2_03 L_Toe2_02
L_Toe3_02 L_Toe3_01
L_Toe3_03 L_Toe3_02
planeLockWeightLeft planeAlignerLeft
R_Leg01 R_Hip
R_Leg02 R_Leg01
R_Leg03 R_Leg02
R_Foot R_Leg03
planeAlignerRight R_Foot
R_Toe1_01 R_Foot
R_Toe2_01 R_Foot
R_Toe3_01 R_Foot
planeLockWeightRight planeAlignerRight
R_Toe1_02 R_Toe1_01
R_Toe1_03 R_Toe1_02
R_Toe2_02 R_Toe2_01
R_Toe2_03 R_Toe2_02
R_Toe3_02 R_Toe3_01
R_Toe3_03 R_Toe3_02
Rear_Leg02 Rear_Leg01
Rear_Leg03 Rear_Leg02
Rear_Leg04 Rear_Leg03
Rear_Foot Rear_Leg04
planeAlignerCenter Rear_Foot
Rear_Toe1_01 Rear_Foot
Rear_Toe2_01 Rear_Foot
Rear_Toe3_01 Rear_Foot
planeLockWeightCenter planeAlignerCenter
Rear_Toe1_02 Rear_Toe1_01
Rear_Toe1_03 Rear_Toe1_02
Rear_Toe2_02 Rear_Toe2_01
Rear_Toe2_03 Rear_Toe2_02
Rear_Toe3_02 Rear_Toe3_01
Rear_Toe3_03 Rear_Toe3_02
Back_Bone Spine1
Head Spine1
Motor_Bone Back_Bone
Ping_Mechanism Back_Bone
BN_LookIK Head
bottomMouth Head
L_Mouth01 Head
L_mouthFront Head
mouthGun Head
R_Mouth01 Head
R_mouthFront Head
TopMouth Head
weapon_bone Head
[BasePosition]
#SegmentName Tx, Ty, Tz, Rx, Ry, Rz, BoneLength
Pinger_Root 0.000000 0.000000 0.000000 -90.000000 0.000000 0.000000 10.000000 
Pelvis 0.000000 0.000000 0.000000 0.000000 0.000000 0.000000 10.000000 
L_Hip 0.000000 0.000000 0.000000 0.000000 0.000000 0.000000 10.000000 
R_Hip 0.000000 0.000000 0.000000 0.000000 0.000000 0.000000 10.000000 
Rear_Leg01 0.000000 0.000000 0.000000 0.000000 0.000000 0.000000 10.000000 
Spine1 0.000000 0.000000 0.000000 0.000000 0.000000 0.000000 10.000000 
L_Leg01 0.000000 0.000000 0.000000 0.000000 0.000000 0.000000 10.000000 
L_Leg02 0.000000 0.000000 0.000000 0.000000 0.000000 0.000000 10.000000 
L_Leg03 0.000000 0.000000 0.000000 0.000000 0.000000 0.000000 10.000000 
L_Foot 0.000000 0.000000 0.000000 0.000000 0.000000 0.000000 10.000000 
L_Toe1_01 0.000000 0.000000 0.000000 0.000000 0.000000 0.000000 10.000000 
L_Toe2_01 0.000000 0.000000 0.000000 0.000000 0.000000 0.000000 10.000000 
L_Toe3_01 0.000000 0.000000 0.000000 0.000000 0.000000 0.000000 10.000000 
planeAlignerLeft 0.000000 0.000000 0.000000 0.000000 0.000000 0.000000 10.000000 
L_Toe1_02 0.000000 0.000000 0.000000 0.000000 0.000000 0.000000 10.000000 
L_Toe1_03 0.000000 0.000000 0.000000 0.000000 0.000000 0.000000 10.000000 
L_Toe2_02 0.000000 0.000000 0.000000 0.000000 0.000000 0.000000 10.000000 
L_Toe2_03 0.000000 0.000000 0.000000 0.000000 0.000000 0.000000 10.000000 
L_Toe3_02 0.000000 0.000000 0.000000 0.000000 0.000000 0.000000 10.000000 
L_Toe3_03 0.000000 0.000000 0.000000 0.000000 0.000000 0.000000 10.000000 
planeLockWeightLeft 0.000000 0.000000 0.000000 0.000000 0.000000 0.000000 10.000000 
R_Leg01 0.000000 0.000000 0.000000 0.000000 0.000000 0.000000 10.000000 
R_Leg02 0.000000 0.000000 0.000000 0.000000 0.000000 0.000000 10.000000 
R_Leg03 0.000000 0.000000 0.000000 0.000000 0.000000 0.000000 10.000000 
R_Foot 0.000000 0.000000 0.000000 0.000000 0.000000 0.000000 10.000000 
planeAlignerRight 0.000000 0.000000 0.000000 0.000000 0.000000 0.000000 10.000000 
R_Toe1_01 0.000000 0.000000 0.000000 0.000000 0.000000 0.000000 10.000000 
R_Toe2_01 0.000000 0.000000 0.000000 0.000000 0.000000 0.000000 10.000000 
R_Toe3_01 0.000000 0.000000 0.000000 0.000000 0.000000 0.000000 10.000000 
planeLockWeightRight 0.000000 0.000000 0.000000 0.000000 0.000000 0.000000 10.000000 
R_Toe1_02 0.000000 0.000000 0.000000 0.000000 0.000000 0.000000 10.000000 
R_Toe1_03 0.000000 0.000000 0.000000 0.000000 0.000000 0.000000 10.000000 
R_Toe2_02 0.000000 0.000000 0.000000 0.000000 0.000000 0.000000 10.000000 
R_Toe2_03 0.000000 0.000000 0.000000 0.000000 0.000000 0.000000 10.000000 
R_Toe3_02 0.000000 0.000000 0.000000 0.000000 0.000000 0.000000 10.000000 
R_Toe3_03 0.000000 0.000000 0.000000 0.000000 0.000000 0.000000 10.000000 
Rear_Leg02 0.000000 0.000000 0.000000 0.000000 0.000000 0.000000 10.000000 
Rear_Leg03 0.000000 0.000000 0.000000 0.000000 0.000000 0.000000 10.000000 
Rear_Leg04 0.000000 0.000000 0.000000 0.000000 0.000000 0.000000 10.000000 
Rear_Foot 0.000000 0.000000 0.000000 0.000000 0.000000 0.000000 10.000000 
planeAlignerCenter 0.000000 0.000000 0.000000 0.000000 0.000000 0.000000 10.000000 
Rear_Toe1_01 0.000000 0.000000 0.000000 0.000000 0.000000 0.000000 10.000000 
Rear_Toe2_01 0.000000 0.000000 0.000000 0.000000 0.000000 0.000000 10.000000 
Rear_Toe3_01 0.000000 0.000000 0.000000 0.000000 0.000000 0.000000 10.000000 
planeLockWeightCenter 0.000000 0.000000 0.000000 0.000000 0.000000 0.000000 10.000000 
Rear_Toe1_02 0.000000 0.000000 0.000000 0.000000 0.000000 0.000000 10.000000 
Rear_Toe1_03 0.000000 0.000000 0.000000 0.000000 0.000000 0.000000 10.000000 
Rear_Toe2_02 0.000000 0.000000 0.000000 0.000000 0.000000 0.000000 10.000000 
Rear_Toe2_03 0.000000 0.000000 0.000000 0.000000 0.000000 0.000000 10.000000 
Rear_Toe3_02 0.000000 0.000000 0.000000 0.000000 0.000000 0.000000 10.000000 
Rear_Toe3_03 0.000000 0.000000 0.000000 0.000000 0.000000 0.000000 10.000000 
Back_Bone 0.000000 0.000000 0.000000 0.000000 0.000000 0.000000 10.000000 
Head 0.000000 0.000000 0.000000 0.000000 0.000000 0.000000 10.000000 
Motor_Bone 0.000000 0.000000 0.000000 0.000000 0.000000 0.000000 10.000000 
Ping_Mechanism 0.000000 0.000000 0.000000 0.000000 0.000000 0.000000 10.000000 
BN_LookIK 0.000000 0.000000 0.000000 0.000000 0.000000 0.000000 10.000000 
bottomMouth 0.000000 0.000000 0.000000 0.000000 0.000000 0.000000 10.000000 
L_Mouth01 0.000000 0.000000 0.000000 0.000000 0.000000 0.000000 10.000000 
L_mouthFront 0.000000 0.000000 0.000000 0.000000 0.000000 0.000000 10.000000 
mouthGun 0.000000 0.000000 0.000000 0.000000 0.000000 0.000000 10.000000 
R_Mouth01 0.000000 0.000000 0.000000 0.000000 0.000000 0.000000 10.000000 
R_mouthFront 0.000000 0.000000 0.000000 0.000000 0.000000 0.000000 10.000000 
TopMouth 0.000000 0.000000 0.000000 0.000000 0.000000 0.000000 10.000000 
weapon_bone 0.000000 0.000000 0.000000 0.000000 0.000000 0.000000 10.000000 
#Beginning of Data. Separated by tabs
#Fr	Tx	Ty	Tz	Rx	Ry	Rz	SF
[Pinger_Root]
36 0.000000 0.000000 0.000000 -0.000075 -0.000000 -0.000020 0.000000
37 0.000000 0.000000 0.000000 -0.000075 -0.000000 -0.000020 0.000000
38 0.000000 0.000000 0.000000 -0.000075 -0.000000 -0.000020 0.000000
[Pelvis]
36 -88.199211 1718.557861 3590.278564 -116.892212 -83.194992 109.429550 3981.371582
37 -50.548756 1654.676880 3632.595215 -120.227119 -81.943062 114.543030 3992.024414
38 15.792534 1566.682983 3693.951904 -111.724815 -81.153847 107.691383 4012.483643
[L_Hip]
36 5.766392 125.831482 872.656799 160.158691 -45.484894 122.312187 881.701050
37 5.766392 125.831482 872.656799 160.158691 -45.484905 122.312202 881.701050
38 5.766392 125.831482 872.656799 160.158691 -45.484905 122.312202 881.701050
[R_Hip]
36 5.765438 125.836372 -872.654907 -97.697380 63.146221 -23.151073 881.699829
37 5.765438 125.836372 -872.654907 -97.697380 63.146221 -23.151073 881.699829
38 5.765438 125.836372 -872.654907 -96.333466 62.524441 -24.924948 881.699829
[Rear_Leg01]
36 -192.298416 -925.602966 -0.001907 172.390015 7.624762 -135.588867 945.367432
37 -192.298416 -925.602966 -0.001907 172.096878 4.646908 -137.198730 945.367432
38 -192.298416 -925.602966 -0.001907 172.929718 2.835418 -138.373642 945.367432
[Spine1]
36 290.604584 5.007505 0.000477 2.976157 -3.338558 32.767250 290.647736
37 290.604584 5.007505 0.000477 2.162146 0.054133 30.988342 290.647736
38 290.604584 5.007505 0.000477 0.232979 1.595798 28.460058 290.647736
[L_Leg01]
36 761.932007 -0.002384 -0.069261 58.679359 -19.829847 -2.270111 761.932068
37 761.932007 -0.002384 -0.069261 57.559078 -27.124928 3.294464 761.932068
38 761.932007 -0.002384 -0.069261 52.286182 -34.276466 9.361522 761.932068
[L_Leg02]
36 1441.140503 -0.000954 -0.000715 5.573019 0.699964 -142.079453 1441.140503
37 1441.140503 -0.000954 -0.000715 4.787901 0.119468 -143.416824 1441.140503
38 1441.140503 -0.000954 -0.000715 3.537245 -0.369214 -141.933533 1441.140503
[L_Leg03]
36 1686.963989 -0.000715 -0.000954 -0.071925 0.040967 129.873016 1686.963989
37 1686.963989 -0.000715 -0.000954 -0.051533 0.026749 124.046677 1686.963989
38 1686.963989 -0.000715 -0.000954 -0.020784 0.008366 115.894531 1686.963989
[L_Foot]
36 3041.570068 -30.715107 11.297464 -26.921854 37.007671 40.496250 3041.746094
37 3041.570068 -30.715107 11.297464 -27.824335 36.408360 39.969341 3041.746094
38 3041.570068 -30.715107 11.297464 -27.466496 34.969082 39.917992 3041.746094
[L_Toe1_01]
36 -188.216690 -224.732346 -21.137953 94.190804 -7.511876 179.910492 293.899567
37 -188.216690 -224.732346 -21.137953 94.190910 -7.513469 179.910217 293.899567
38 -188.216690 -224.732346 -21.137953 94.191025 -7.515063 179.909958 293.899567
[L_Toe2_01]
36 200.746536 -219.926590 148.838394 -98.193222 -36.571735 -34.803730 332.896027
37 200.746536 -219.926590 148.838394 -98.193222 -36.571735 -34.803730 332.896027
38 200.746536 -219.926590 148.838394 -98.193222 -36.571735 -34.803730 332.896027
[L_Toe3_01]
36 188.832520 -219.859131 -191.078659 -96.679802 25.038572 -61.562389 347.140900
37 188.832520 -219.859131 -191.078659 -96.679802 25.038572 -61.562389 347.140900
38 188.832520 -219.859131 -191.078659 -96.679802 25.038572 -61.562389 347.140900
[planeAlignerLeft]
36 0.812531 -811.448792 -0.314951 0.000000 -90.000000 -90.001900 811.449280
37 0.812531 -811.448792 -0.314951 0.000000 -90.000000 -90.001900 811.449280
38 0.812531 -811.448792 -0.314951 0.000000 -90.000000 -90.001900 811.449280
[L_Toe1_02]
36 413.761139 0.000477 0.000000 0.001661 0.067312 0.001661 413.761139
37 413.761139 0.000477 0.000000 0.001661 0.067189 0.001661 413.761139
38 413.761139 0.000477 0.000000 0.001661 0.067065 0.001661 413.761139
[L_Toe1_03]
36 464.317322 0.000358 -0.000089 0.001673 -0.448396 -0.003292 464.317322
37 464.317322 0.000358 -0.000089 0.001673 -0.448396 -0.003292 464.317322
38 464.317322 0.000358 -0.000089 0.001673 -0.448396 -0.003292 464.317322
[L_Toe2_02]
36 342.235809 -0.000477 0.000238 0.004684 -81.215591 0.004684 342.235809
37 342.235809 -0.000477 0.000238 0.004684 -81.216064 0.004684 342.235809
38 342.235809 -0.000477 0.000238 0.004684 -81.216507 0.004684 342.235809
[L_Toe2_03]
36 420.210846 -0.000715 0.000000 179.993240 43.061138 -179.999130 420.210846
37 420.210846 -0.000715 0.000000 179.993240 43.061138 -179.999130 420.210846
38 420.210846 -0.000715 0.000000 179.993240 43.061138 -179.999130 420.210846
[L_Toe3_02]
36 329.270111 0.000954 0.000000 0.004676 -84.586296 0.004676 329.270111
37 329.270111 0.000954 0.000000 0.004676 -84.586296 0.004676 329.270111
38 329.270111 0.000954 0.000000 0.004676 -84.586296 0.004676 329.270111
[L_Toe3_03]
36 439.137451 -0.001907 0.000954 179.993500 35.788990 -179.998657 439.137451
37 439.137451 -0.001907 0.000954 179.993500 35.788990 -179.998657 439.137451
38 439.137451 -0.001907 0.000954 179.993500 35.788990 -179.998657 439.137451
[planeLockWeightLeft]
36 -0.000954 0.000238 -0.000305 -0.011826 -0.004376 0.005620 0.001029
37 -0.000954 0.000238 -0.000305 -0.011826 -0.004376 0.005620 0.001029
38 -0.000954 0.000238 -0.000305 -0.011826 -0.004376 0.005620 0.001029
[R_Leg01]
36 761.455627 -0.001907 -0.000358 117.363525 -1.655358 95.183136 761.455688
37 761.455627 -0.001907 -0.000358 119.560890 -1.686108 96.724243 761.455688
38 761.455627 -0.001907 -0.000358 119.906784 -0.478764 97.210876 761.455688
[R_Leg02]
36 1441.140625 0.000000 -0.000238 -1.092292 -0.071555 -96.884010 1441.140625
37 1441.140625 0.000000 -0.000238 -0.927094 -0.014805 -95.430145 1441.140625
38 1441.140625 0.000000 -0.000238 -0.861199 -0.005494 -96.004295 1441.140625
[R_Leg03]
36 1686.963989 0.000954 0.001431 0.073977 -0.038603 130.668808 1686.963989
37 1686.963989 0.000954 0.001431 0.067922 -0.035218 129.052628 1686.963989
38 1686.963989 0.000954 0.001431 0.065868 -0.035960 128.492508 1686.963989
[R_Foot]
36 3041.560059 -30.531288 -11.204481 0.415719 5.674746 47.878967 3041.734131
37 3041.560059 -30.531288 -11.204481 -0.242332 5.675553 48.377586 3041.734131
38 3041.560059 -30.531288 -11.204481 -1.483207 4.585024 48.948139 3041.734131
[planeAlignerRight]
36 -0.635147 -812.270569 -0.364304 0.000000 -89.960434 -90.005180 812.270874
37 -0.635147 -812.270569 -0.364304 0.000000 -89.960434 -90.005180 812.270874
38 -0.635147 -812.270569 -0.364304 0.000000 -89.960434 -90.005180 812.270874
[R_Toe1_01]
36 -188.383347 -224.864899 21.052242 77.501549 2.585279 -171.439346 294.101532
37 -188.383347 -224.864899 21.052242 77.501534 2.585361 -171.439438 294.101532
38 -188.383347 -224.864899 21.052242 77.501534 2.585442 -171.439545 294.101532
[R_Toe2_01]
36 200.637817 -220.002121 -148.787384 -87.001251 41.730354 -47.413670 332.857574
37 200.637817 -220.002121 -148.787384 -87.001236 41.730743 -47.413509 332.857574
38 200.637817 -220.002121 -148.787384 -87.001213 41.731136 -47.413349 332.857574
[R_Toe3_01]
36 188.606735 -220.092957 191.126343 -74.774231 -14.746103 -63.949142 347.192566
37 188.606735 -220.092957 191.126343 -74.774231 -14.746103 -63.949142 347.192566
38 188.606735 -220.092957 191.126343 -74.774231 -14.746103 -63.949142 347.192566
[planeLockWeightRight]
36 -0.000477 0.000000 0.000000 -0.011823 -0.004379 -0.000027 0.000477
37 -0.000477 0.000000 0.000000 -0.011823 -0.004379 -0.000027 0.000477
38 -0.000477 0.000000 0.000000 -0.011823 -0.004379 -0.000027 0.000477
[R_Toe1_02]
36 413.762085 0.000477 -0.000119 0.001417 -21.791937 0.001417 413.762085
37 413.762085 0.000477 -0.000119 0.001417 -21.790901 0.001417 413.762085
38 413.762085 0.000477 -0.000119 0.001417 -21.789871 0.001417 413.762085
[R_Toe1_03]
36 464.317810 0.000000 0.001088 0.000899 28.910580 -0.003161 464.317810
37 464.317810 0.000000 0.001088 0.000899 28.910767 -0.003161 464.317810
38 464.317810 0.000000 0.001088 0.000899 28.910938 -0.003161 464.317810
[R_Toe2_02]
36 342.234741 -0.000954 0.000238 -0.002334 -78.716957 -0.002334 342.234741
37 342.234741 -0.000954 0.000238 -0.002334 -78.714149 -0.002334 342.234741
38 342.234741 -0.000954 0.000238 -0.002334 -78.711304 -0.002334 342.234741
[R_Toe2_03]
36 420.210846 0.000715 -0.000268 -179.994690 71.300629 -179.998230 420.210846
37 420.210846 0.000715 -0.000268 -179.994690 71.300629 -179.998230 420.210846
38 420.210846 0.000715 -0.000268 -179.994690 71.300629 -179.998230 420.210846
[R_Toe3_02]
36 329.270355 -0.000477 -0.000954 0.001175 -84.056038 0.001175 329.270355
37 329.270355 -0.000477 -0.000954 0.001175 -84.056709 0.001175 329.270355
38 329.270355 -0.000477 -0.000954 0.001175 -84.057388 0.001175 329.270355
[R_Toe3_03]
36 439.137939 0.000238 0.001431 -179.995346 57.501240 -179.988052 439.137939
37 439.137939 0.000238 0.001431 -179.995346 57.501095 -179.988052 439.137939
38 439.137939 0.000238 0.001431 -179.995346 57.500946 -179.988052 439.137939
[Rear_Leg02]
36 1162.777710 -0.029802 0.005960 2.318711 18.050840 -88.245079 1162.777710
37 1162.777710 -0.029802 0.005960 1.827698 18.107428 -89.842331 1162.777710
38 1162.777710 -0.029802 0.005960 1.143873 16.547182 -90.226631 1162.777710
[Rear_Leg03]
36 607.192505 -0.013351 -0.073195 0.006592 -0.001711 57.307289 607.192505
37 607.192505 -0.013351 -0.073195 0.006581 -0.001751 58.002834 607.192505
38 607.192505 -0.013351 -0.073195 0.006571 -0.001791 58.698360 607.192505
[Rear_Leg04]
36 995.874512 -0.020504 -0.011921 -0.036654 -0.015047 45.361885 995.874573
37 995.874512 -0.020504 -0.011921 -0.037793 -0.016926 46.586906 995.874573
38 995.874512 -0.020504 -0.011921 -0.038971 -0.018781 47.811901 995.874573
[Rear_Foot]
36 3096.176270 -0.067472 -0.041425 41.188641 70.322289 -113.882385 3096.176270
37 3096.176270 -0.067472 -0.041425 43.986965 71.121246 -112.223640 3096.176270
38 3096.176270 -0.067472 -0.041425 48.629108 73.652428 -109.487625 3096.176270
[planeAlignerCenter]
36 0.350077 0.966311 -838.790894 0.000009 0.000003 -179.999985 838.791565
37 0.350077 0.966311 -838.790894 0.000009 0.000003 -179.999985 838.791565
38 0.350077 0.966311 -838.790894 0.000009 0.000003 -179.999985 838.791565
[Rear_Toe1_01]
36 0.653352 83.966492 -371.173737 -30.751719 22.812101 86.595940 380.553192
37 0.653352 83.966492 -371.173737 -30.751724 22.811804 86.595825 380.553192
38 0.653352 83.966492 -371.173737 -30.751722 22.811512 86.595711 380.553192
[Rear_Toe2_01]
36 178.200760 -294.826019 -362.060547 -8.136828 -0.233392 -62.257332 499.765686
37 178.200760 -294.826019 -362.060547 -8.136891 -0.233635 -62.257339 499.765686
38 178.200760 -294.826019 -362.060547 -8.136950 -0.233877 -62.257317 499.765686
[Rear_Toe3_01]
36 -153.359680 -308.780914 -362.060852 3.734416 13.516393 -102.730881 499.952881
37 -153.359680 -308.780914 -362.060852 3.734440 13.516144 -102.730927 499.952881
38 -153.359680 -308.780914 -362.060852 3.734462 13.515895 -102.730957 499.952881
[planeLockWeightCenter]
36 -0.000062 0.000238 0.000000 -0.011814 -0.004373 -0.000015 0.000246
37 -0.000062 0.000238 0.000000 -0.011814 -0.004373 -0.000015 0.000246
38 -0.000062 0.000238 0.000000 -0.011814 -0.004373 -0.000015 0.000246
[Rear_Toe1_02]
36 379.707825 0.194073 0.000477 -0.006719 -30.025625 -0.006719 379.707855
37 379.707825 0.194073 0.000477 -0.006719 -30.025448 -0.006719 379.707855
38 379.707825 0.194073 0.000477 -0.006719 -30.025259 -0.006719 379.707855
[Rear_Toe1_03]
36 500.129700 0.165701 0.000119 -179.994797 70.676056 -179.998352 500.129761
37 500.129700 0.165701 0.000119 -179.994797 70.675858 -179.998352 500.129761
38 500.129700 0.165701 0.000119 -179.994797 70.675644 -179.998352 500.129761
[Rear_Toe2_02]
36 340.494507 0.000238 -0.000954 0.001661 0.064929 0.001661 340.494507
37 340.494507 0.000238 -0.000954 0.001661 0.065100 0.001661 340.494507
38 340.494507 0.000238 -0.000954 0.001661 0.065270 0.001661 340.494507
[Rear_Toe2_03]
36 433.103577 0.000000 0.000238 -0.003297 -0.804494 0.001683 433.103546
37 433.103577 0.000000 0.000238 -0.003297 -0.804494 0.001683 433.103546
38 433.103577 0.000000 0.000238 -0.003297 -0.804494 0.001683 433.103546
[Rear_Toe3_02]
36 340.494141 -0.000358 -0.000477 -0.002600 -36.670113 -0.002600 340.494171
37 340.494141 -0.000358 -0.000477 -0.002600 -36.670113 -0.002600 340.494171
38 340.494141 -0.000358 -0.000477 -0.002600 -36.670113 -0.002600 340.494171
[Rear_Toe3_03]
36 433.103577 0.001431 -0.000238 0.006396 30.730234 -0.001649 433.103546
37 433.103577 0.001431 -0.000238 0.006396 30.730234 -0.001649 433.103546
38 433.103577 0.001431 -0.000238 0.006396 30.730234 -0.001649 433.103546
[Back_Bone]
36 1312.175781 -701.934692 0.000954 12.766189 -24.729805 -89.875526 1488.125488
37 1312.175781 -701.934692 0.000954 12.586065 -23.799274 -90.605797 1488.125488
38 1312.175781 -701.934692 0.000954 12.210044 -22.546999 -90.908501 1488.125488
[Head]
36 1406.159424 809.709290 0.001431 -0.783268 -1.429519 42.210056 1622.625488
37 1406.159424 809.709290 0.001431 -0.653731 -1.495980 41.419922 1622.625488
38 1406.159424 809.709290 0.001431 -0.431003 -1.525894 40.250538 1622.625488
[Motor_Bone]
36 1158.364380 -417.834747 0.000477 -5.249234 -18.992893 -116.236351 1231.419434
37 1158.364380 -417.834747 0.000477 -4.735662 -16.604645 -116.781647 1231.419434
38 1158.364380 -417.834747 0.000477 -4.147114 -14.342175 -117.028191 1231.419434
[Ping_Mechanism]
36 1233.356079 -456.533691 -17.449781 0.000103 -0.000053 82.120995 1315.254639
37 1235.063965 -458.973053 -24.444321 0.000103 -0.000053 82.120995 1317.815063
38 1241.777710 -460.146454 -23.938761 0.000103 -0.000053 82.120995 1324.507324
[BN_LookIK]
36 193.241119 1380.371704 -0.002861 0.000000 89.965736 -31.038179 1393.832153
37 193.241119 1380.371704 -0.002861 0.000000 89.965736 -31.038179 1393.832153
38 193.241119 1380.371704 -0.002861 0.000000 89.965736 -31.038179 1393.832153
[bottomMouth]
36 -435.092926 615.759399 -0.000954 -0.000022 0.000016 73.527184 753.966492
37 -435.092926 615.759399 -0.000954 -0.000022 0.000016 73.527184 753.966492
38 -435.092926 615.759399 -0.000954 -0.000022 0.000016 73.527184 753.966492
[L_Mouth01]
36 554.440979 7.658243 838.222046 150.204178 23.759130 109.605339 1005.027161
37 554.440979 7.658243 838.222046 150.204178 23.759130 109.605339 1005.027161
38 554.440979 7.658243 838.222046 150.204178 23.759130 109.605339 1005.027161
[L_mouthFront]
36 551.629089 934.514771 339.150421 0.000081 2.804060 79.119301 1136.941284
37 551.629089 934.514771 339.150421 0.000081 2.804060 79.119301 1136.941284
38 551.629089 934.514771 339.150421 0.000081 2.804060 79.119301 1136.941284
[mouthGun]
36 55.332661 1627.420898 0.000000 0.000023 0.000009 -11.038128 1628.361328
37 55.332661 1627.420898 0.000000 0.000023 0.000009 -11.038128 1628.361328
38 55.332661 1627.420898 0.000000 0.000023 0.000009 -11.038128 1628.361328
[R_Mouth01]
36 554.442383 7.659197 -838.223938 29.795891 -23.759109 109.605331 1005.029541
37 554.442383 7.659197 -838.223938 29.795891 -23.759109 109.605331 1005.029541
38 554.442383 7.659197 -838.223938 29.795891 -23.759109 109.605331 1005.029541
[R_mouthFront]
36 551.629089 934.514282 -339.151367 0.000029 -2.803930 79.119133 1136.941162
37 551.629089 934.514282 -339.151367 0.000029 -2.803930 79.119133 1136.941162
38 551.629089 934.514282 -339.151367 0.000029 -2.803930 79.119133 1136.941162
[TopMouth]
36 461.269867 -56.106091 -0.008583 -0.000059 -0.000268 92.025169 464.669525
37 461.269867 -56.106091 -0.008583 -0.000059 -0.000268 92.025169 464.669525
38 461.269867 -56.106091 -0.008583 -0.000059 -0.000268 92.025169 464.669525
[weapon_bone]
36 -987.239868 1448.372803 0.001431 0.000000 89.965736 -31.038221 1752.833740
37 -987.239868 1448.372803 0.001431 0.000000 89.965736 -31.038221 1752.833740
38 -987.239868 1448.372803 0.001431 0.000000 89.965736 -31.038221 1752.833740
